PathFileType	4	(X/Y/Z)	C:/Users/opensim2020/Desktop/walking_exp_matlab/subject02_walking05_straight_04.trc																																																																																																																												
DataRate	CameraRate	NumFrames	NumMarkers	Units	OrigDataRate	OrigDataStartFrame	OrigNumFrames																																																																																																																								
100	100	6	42	mm	100	2901	220																																																																																																																								
Frame#	Time	LFHD			RFHD			LBHD			RBHD			C7			T10			CLAV			STRN			RBAK			LSHO			LUPA			LELB			LFRM			LWRA			LWRB			LFIN			RSHO			RUPA			RELB			RFRM			RWRA			RWRB			RFIN			LASI			RASI			LPSI			RPSI			LTHI			LKNE			LTIB			LANK			LHEE			LTOE			RTHI			RKNE			RTIB			RANK			RHEE			RTOE			*39			*40			*41		
		X1	Y1	Z1	X2	Y2	Z2	X3	Y3	Z3	X4	Y4	Z4	X5	Y5	Z5	X6	Y6	Z6	X7	Y7	Z7	X8	Y8	Z8	X9	Y9	Z9	X10	Y10	Z10	X11	Y11	Z11	X12	Y12	Z12	X13	Y13	Z13	X14	Y14	Z14	X15	Y15	Z15	X16	Y16	Z16	X17	Y17	Z17	X18	Y18	Z18	X19	Y19	Z19	X20	Y20	Z20	X21	Y21	Z21	X22	Y22	Z22	X23	Y23	Z23	X24	Y24	Z24	X25	Y25	Z25	X26	Y26	Z26	X27	Y27	Z27	X28	Y28	Z28	X29	Y29	Z29	X30	Y30	Z30	X31	Y31	Z31	X32	Y32	Z32	X33	Y33	Z33	X34	Y34	Z34	X35	Y35	Z35	X36	Y36	Z36	X37	Y37	Z37	X38	Y38	Z38	X39	Y39	Z39	X40	Y40	Z40	X41	Y41	Z41	X42	Y42	Z42
																																																																																																																															
166	1.65	554.8407	1690.646	-1536.81921	535.32874	1671.63	-1394.77673	413.97668	1642.73499	-1561.74524	382.92514	1625.18091	-1421.30859	331.42746	1499.78027	-1485.94617	275.33414	1220.43616	-1469.85974	467.49091	1425.16663	-1498.20605	516.37531	1254.79944	-1490.70129	270.50662	1322.25867	-1418.4082	399.4342	1469.03955	-1666.19812	430.37067	1278.69629	-1762.93481	484.35654	1149.27637	-1792.4613	571.24701	1046.5144	-1799.08057	686.3233	982.38257	-1757.2428	652.65051	955.15088	-1793.31226	709.49506	922.7616	-1797.13843	408.93228	1463.63525	-1300.26147	352.1123	1280.97473	-1218.35425	344.30051	1134.7113	-1198.87866	356.71472	1015.73706	-1174.64478	392.11972	883.7442	-1187.29456	343.33817	887.05225	-1158.61035	371.95691	819.64673	-1153.3031	493.33618	958.18011	-1627.05701	528.07605	951.93134	-1369.65149	295.14493	1002.18604	-1515.24292	303.77698	1000.38696	-1402.46973	361.38214	659.63867	-1660.21143	284.07394	471.31946	-1624.479	168.03578	314.22855	-1620.82434	99.68273	98.45582	-1583.33276	58.27807	81.9107	-1532.41602	243.7823	30.30319	-1593.75757	527.78619	657.00128	-1280.37378	595.78363	461.55942	-1321.75647	613.91321	274.98141	-1311.51855	663.67395	86.41549	-1342.25854	657.63379	25.55398	-1400.71338	822.53583	77.82761	-1315.09399	457.918	1774.71338	-1457.0343	-2845.0061	1033.7002	3360.27319	NaN	NaN	NaN
167	1.66	564.80078	1689.64026	-1534.32446	545.2525	1670.58813	-1392.26648	423.9838	1641.61731	-1559.36035	392.85428	1623.9751	-1418.93201	341.68295	1498.45642	-1483.55005	286.51489	1218.82239	-1467.34473	477.60297	1424.03259	-1495.79456	527.44849	1254.00891	-1488.66211	281.6275	1320.65747	-1416.0575	409.70541	1467.77783	-1663.92578	439.16949	1276.68896	-1759.97766	491.46381	1146.75439	-1789.30176	577.24951	1043.07959	-1796.23755	692.11823	978.02673	-1755.1228	657.84521	951.00305	-1790.70496	714.20551	917.94501	-1794.79456	419.43411	1462.40417	-1297.73462	361.61133	1280.00818	-1216.47717	354.44934	1133.62354	-1196.68677	366.86237	1014.82806	-1172.17163	402.2337	882.75519	-1184.57495	353.2774	886.02466	-1156.22607	380.94125	818.30438	-1151.00012	505.29523	957.41077	-1625.24756	540.01978	951.40863	-1368.26147	306.90323	1000.66675	-1512.55713	315.8233	999.06641	-1400.08191	371.39221	659.18634	-1659.11548	293.11435	471.50787	-1623.98584	174.03496	316.75174	-1620.24841	101.49661	102.02266	-1583.69849	60.34447	86.31073	-1532.51917	243.93896	30.26087	-1593.99622	541.71698	656.61475	-1278.54626	605.84387	459.62189	-1320.4353	620.33783	272.17499	-1311.39709	667.06573	83.78692	-1342.77905	658.03632	23.92711	-1401.00269	824.87122	70.71061	-1316.11926	467.70721	1773.62109	-1454.56604	-2845.78516	1033.88782	3357.29468	NaN	NaN	NaN
168	1.67	574.91705	1688.82434	-1531.77063	555.33514	1669.64758	-1389.68542	434.29694	1640.50659	-1556.58997	403.07294	1622.85669	-1416.71863	352.04733	1497.25024	-1481.06519	297.71747	1217.33801	-1464.76929	488.49094	1423.26733	-1493.52698	538.57227	1253.33423	-1486.48047	292.26743	1319.06189	-1413.88867	419.91534	1466.57361	-1661.55701	447.58414	1275.01367	-1757.20837	498.52246	1144.36682	-1785.96716	583.00885	1039.61707	-1793.25134	697.39569	973.44171	-1752.97656	662.47479	946.0965	-1787.60059	718.25519	912.52905	-1792.30029	430.05774	1461.29028	-1294.95178	372.57095	1279.02942	-1213.97461	365.00992	1132.59924	-1194.17688	377.52811	1013.93286	-1169.51697	412.83295	881.71344	-1181.66394	363.61795	884.93518	-1153.78613	391.53928	817.58783	-1148.12769	517.00262	956.50122	-1623.37598	552.64722	951.53009	-1366.2384	318.9097	999.17975	-1509.81763	328.05664	997.85913	-1397.4093	381.78857	658.75195	-1657.8949	302.61295	471.7099	-1623.39514	180.34262	319.36374	-1619.48865	103.56793	105.92955	-1584.11487	62.65769	91.4195	-1532.99854	244.04599	30.10904	-1594.26367	554.80145	655.88605	-1276.78918	615.32025	457.84903	-1318.53149	627.20898	269.8468	-1312.49231	671.1651	82.27338	-1343.48071	660.89056	26.22704	-1401.76025	829.71393	61.1196	-1315.04138	477.61407	1772.59265	-1451.90039	-2845.15674	1033.80432	3360.25098	NaN	NaN	NaN
169	1.68	585.1546	1688.55542	-1529.01892	565.58069	1669.28906	-1387.05225	444.45554	1640.10999	-1554.33044	413.22192	1622.20105	-1414.25427	361.96613	1496.19397	-1478.48535	308.75064	1216.64551	-1462.12634	498.96964	1422.72522	-1491.09204	549.51886	1253.22473	-1484.21582	302.90723	1318.20813	-1411.69055	430.09229	1465.56909	-1659.22485	456.18091	1273.34094	-1754.14941	505.46667	1142.05566	-1782.41821	588.34192	1036.1626	-1790.10608	702.11609	968.28644	-1750.58643	666.5014	941.73199	-1785.29333	721.82892	907.16724	-1789.94629	439.97562	1460.45691	-1292.71448	382.83411	1277.95605	-1211.69226	375.25397	1131.7019	-1191.89636	387.58154	1012.72546	-1167.59875	423.6767	881.00549	-1178.82446	374.12662	884.04095	-1151.33606	402.15146	816.54828	-1145.29395	528.75	955.65088	-1621.48059	564.82776	951.7821	-1364.0957	331.01575	997.90045	-1506.96887	340.42249	996.89679	-1394.61169	392.69254	658.42206	-1656.59473	312.61407	472.15814	-1622.71802	187.09235	322.42386	-1618.80457	106.13258	110.3709	-1584.8606	65.5591	97.14605	-1533.5033	244.24696	30.04965	-1594.50012	566.30762	656.20959	-1274.87512	625.07556	457.40237	-1316.13757	636.20551	269.3703	-1313.35242	678.0946	82.9849	-1340.62756	664.41809	29.1347	-1399.87036	836.4118	53.54975	-1313.64893	487.68347	1772.14099	-1449.18274	-2845.0603	1033.88953	3360.17993	NaN	NaN	NaN
170	1.69	595.4502	1688.68323	-1526.11633	575.68616	1669.25574	-1384.15979	454.93454	1640.2572	-1551.59473	423.41309	1622.13037	-1411.43408	371.9212	1495.64551	-1475.79846	319.73712	1216.15588	-1459.80994	509.38486	1422.88013	-1488.65625	560.47736	1253.50232	-1481.92908	313.72943	1317.69617	-1409.22498	440.03448	1465.00806	-1656.99121	464.79816	1271.91907	-1751.14893	512.41699	1139.98669	-1778.72388	593.44647	1032.73865	-1786.93323	706.42438	963.09326	-1748.24548	670.03406	936.98596	-1782.48669	724.55975	901.18854	-1787.30176	450.62384	1459.83008	-1289.85083	394.02728	1276.99927	-1208.97009	386.0253	1130.82202	-1189.29736	398.55453	1011.94098	-1164.79163	434.81796	880.40338	-1175.95679	384.98792	883.21918	-1148.89783	413.43433	816.15033	-1142.46924	541.21753	955.09546	-1619.33167	576.66211	952.02466	-1361.98413	343.20517	996.99365	-1504.27795	352.92453	996.76813	-1391.74243	404.00461	658.44629	-1655.40894	323.32895	472.82153	-1622.26672	194.5134	325.98856	-1618.1897	109.24145	115.35468	-1585.6543	69.07362	103.31464	-1534.2113	244.54524	30.10756	-1594.78577	576.90326	657.07874	-1272.22046	636.53424	458.86447	-1313.01233	646.64539	270.80093	-1307.95117	685.18475	82.40176	-1336.97168	667.32507	31.1921	-1396.72253	842.45941	47.89496	-1314.01563	497.91864	1772.05811	-1446.21448	NaN	NaN	NaN	NaN	NaN	NaN
171	1.7	605.84253	1688.99084	-1523.23694	585.80969	1669.25574	-1381.27844	465.28387	1640.61926	-1548.94629	433.56894	1622.27759	-1408.78638	382.55865	1495.86108	-1473.27295	330.68396	1215.72546	-1457.70776	519.72729	1423.21228	-1486.09937	571.61713	1254.07959	-1479.52612	324.42386	1317.31714	-1406.55713	449.83829	1464.74829	-1654.76611	473.22198	1270.67224	-1747.625	519.32874	1138.18469	-1774.84448	598.29865	1029.2301	-1783.4032	710.04413	957.49561	-1745.74316	672.80585	932.17957	-1779.54663	726.82507	895.22125	-1784.65015	460.71631	1459.44287	-1287.27625	404.93237	1276.46521	-1206.35474	396.88635	1130.26538	-1186.82739	409.24686	1011.53394	-1162.24329	446.3154	879.99463	-1173.00183	396.08133	882.74768	-1146.38647	424.6554	815.77417	-1139.61536	553.81549	954.55188	-1616.58301	588.6452	952.7262	-1359.5957	355.6178	996.73334	-1501.85547	365.37881	997.54266	-1388.82043	415.89597	658.72351	-1653.95239	334.88879	473.77197	-1622.19739	202.90425	329.83939	-1617.73242	112.9325	120.86108	-1586.55066	73.29601	110.58753	-1534.91211	244.85875	30.10777	-1595.10193	586.84875	657.76074	-1269.47034	648.20581	460.69894	-1310.63708	657.88879	273.16653	-1303.43457	690.06891	82.50936	-1334.40454	668.55383	32.39058	-1394.72729	846.44678	42.58591	-1314.66614	508.09702	1772.29468	-1443.44653	NaN	NaN	NaN	NaN	NaN	NaN
